<svg xmlns="http://www.w3.org/2000/svg" viewBox="0 0 480 480" width="30" height="30"><title>delivery-man-svg</title><style>		.s0 { fill: #266eff } 	</style><g id="SVGRepo_bgCarrier">	</g><g id="SVGRepo_tracerCarrier">	</g><g id="SVGRepo_iconCarrier"><g><g><g><path fill-rule="evenodd" class="s0" d="m56 144c-30.9 0-56-25.1-56-56 0-30.9 25.1-56 56-56 30.9 0 56 25.1 56 56 0 30.9-25.1 56-56 56zm40-56c0-22.1-17.9-40-40-40-22.1 0-40 17.9-40 40 0 22.1 17.9 40 40 40 22.1 0 40-17.9 40-40z"></path><path class="s0" d="m75.6 64.8c-4-1.9-8.8-0.3-10.8 3.6l-11 22.1-8.1-8.2c-3.2-3.1-8.2-3.1-11.4 0-3.1 3.2-3.1 8.2 0 11.3l16 16c1.6 1.6 3.6 2.4 5.7 2.4q0.6 0 1.3-0.1c2.5-0.4 4.7-2 5.9-4.3l16-32c1.9-4 0.3-8.8-3.6-10.8z"></path><path fill-rule="evenodd" class="s0" d="m480 168c0 30.9-25.1 56-56 56-30.9 0-56-25.1-56-56 0-14.6 5.7-27.9 14.8-37.8l-4.5-4.5c-3.1-3.2-3.1-8.2 0-11.4 3.2-3.1 8.2-3.1 11.4 0l5.6 5.7c6.2-3.7 13.2-6.3 20.7-7.4v-8.6h-8c-4.4 0-8-3.6-8-8 0-4.4 3.6-8 8-8h32c4.4 0 8 3.6 8 8 0 4.4-3.6 8-8 8h-8v8.6c7.5 1.1 14.5 3.7 20.7 7.4l5.6-5.7c3.2-3.1 8.2-3.1 11.4 0 3.1 3.2 3.1 8.2 0 11.4l-4.5 4.5c9.1 9.9 14.8 23.2 14.8 37.8zm-16 0c0-22.1-17.9-40-40-40-22.1 0-40 17.9-40 40 0 22.1 17.9 40 40 40 22.1 0 40-17.9 40-40z"></path><path class="s0" d="m434.5 144.4c-4.2-1.4-8.7 0.9-10.1 5.1l-6.2 18.5h-10.2c-4.4 0-8 3.6-8 8 0 4.4 3.6 8 8 8h16c3.4 0 6.5-2.2 7.6-5.5l8-24c1.4-4.2-0.9-8.7-5.1-10.1z"></path><path fill-rule="evenodd" class="s0" d="m400 264v208c0 4.4-3.6 8-8 8h-304c-4.4 0-8-3.6-8-8v-208c0-4.4 3.6-8 8-8h18.6l21.9-54.9c6.1-15.2 20.7-25.1 37.2-25.1h21.1c-16.3-13.2-26.8-33.4-26.8-56v-46.2c-4.9-4.4-8-10.7-8-17.8 0-30.9 25.1-56 56-56h64c30.9 0 56 25.1 56 56v16h32c4.4 0 8 3.6 8 8 0 4.4-3.6 8-8 8h-40v32c0 22.6-10.5 42.8-26.8 56h21.1c16.5 0 31.1 9.9 37.2 25.2l21.9 54.8h18.6c4.4 0 8 3.6 8 8zm-224-200h24.8c3.7-18.2 19.9-32 39.2-32 19.3 0 35.5 13.8 39.2 32h32.8v-8c0-22.1-17.9-40-40-40h-64c-22.1 0-40 17.9-40 40 0 4.4 3.6 8 8 8zm64-16c-10.4 0-19.3 6.7-22.6 16h45.2c-3.3-9.3-12.2-16-22.6-16zm-8 128h16c30.9 0 56-25.1 56-56v-40h-59.1l-5.7 11.6c-1.4 2.8-4.3 4.4-7.2 4.4-1.2 0-2.4-0.3-3.6-0.8-3.9-2-5.5-6.8-3.6-10.8l2.3-4.4h-14.2l-5.7 11.6c-1.4 2.8-4.3 4.4-7.2 4.4-1.2 0-2.4-0.3-3.6-0.8-3.9-2-5.5-6.8-3.6-10.8l2.3-4.4h-19.1v40c0 30.9 25.1 56 56 56zm-108.2 80h46.4l6.2-18.5c1.4-4.2 5.9-6.5 10.1-5.1 4.2 1.4 6.5 5.9 5.1 10.1l-4.5 13.5h110l-7.8-11.6c-2.4-3.6-1.4-8.6 2.3-11.1 3.6-2.4 8.6-1.4 11.1 2.3l13.6 20.4h39.9l-19.6-48.9c-3.6-9.2-12.4-15.1-22.3-15.1h-30.6l-37.6 45.1c-1.5 1.8-3.7 2.9-6.1 2.9-2.4 0-4.6-1.1-6.1-2.9l-37.6-45.1h-30.6c-9.9 0-18.7 5.9-22.3 15.1zm93.2-64l23 27.5 22.9-27.5zm166.9 80h-112v56c0 4.4-3.6 8-8 8h-48c-4.4 0-8-3.6-8-8v-56c0 0-32 0-32 0 0 0-80 0-80 0v192h112v-40c0-4.4 3.6-8 8-8h48c4.4 0 8 3.6 8 8v40h112zm-128 160h-32v32h32zm-32-160v48h32v-48z"></path><path class="s0" d="m128 304h24c4.4 0 8-3.6 8-8 0-4.4-3.6-8-8-8h-24c-4.4 0-8 3.6-8 8 0 4.4 3.6 8 8 8z"></path><path class="s0" d="m168 320h-40c-4.4 0-8 3.6-8 8 0 4.4 3.6 8 8 8h40c4.4 0 8-3.6 8-8 0-4.4-3.6-8-8-8z"></path><path class="s0" d="m352 400h-24c-4.4 0-8 3.6-8 8 0 4.4 3.6 8 8 8h24c4.4 0 8-3.6 8-8 0-4.4-3.6-8-8-8z"></path><path class="s0" d="m352 432h-40c-4.4 0-8 3.6-8 8 0 4.4 3.6 8 8 8h40c4.4 0 8-3.6 8-8 0-4.4-3.6-8-8-8z"></path><path fill-rule="evenodd" class="s0" d="m360 296v16c0 13.2-10.8 24-24 24h-24c-4.4 0-8-3.6-8-8v-16c0-13.2 10.8-24 24-24h24c4.4 0 8 3.6 8 8zm-16 8h-16c-4.4 0-8 3.6-8 8v8h16c4.4 0 8-3.6 8-8z"></path><path class="s0" d="m240 160c17.6 0 32-14.4 32-32 0-4.4-3.6-8-8-8-4.4 0-8 3.6-8 8 0 8.8-7.2 16-16 16-8.8 0-16-7.2-16-16 0-4.4-3.6-8-8-8-4.4 0-8 3.6-8 8 0 17.6 14.4 32 32 32z"></path></g></g></g></g></svg>